<svg xmlns="http://www.w3.org/2000/svg"  viewBox="0 0 50 50" width="50px" height="50px"><path d="M 25.5 9 C 21.364 9 18 12.589 18 17 C 18 21.411 21.364 25 25.5 25 C 29.636 25 33 21.411 33 17 C 33 12.589 29.636 9 25.5 9 z M 25.5 10 C 29.084 10 32 13.14 32 17 C 32 20.86 29.084 24 25.5 24 C 21.916 24 19 20.86 19 17 C 19 13.14 21.916 10 25.5 10 z M 25.277344 28.330078 C 18.397344 28.330078 12.417438 31.988641 10.398438 37.431641 C 9.7404375 39.202641 11.116969 41 12.917969 41 L 31.435547 41 C 31.320547 40.675 31.220391 40.344 31.150391 40 L 12.917969 40 C 11.584969 40 11.043891 38.649297 11.337891 37.779297 C 13.063891 32.674297 18.813344 29.330078 25.277344 29.330078 C 28.812344 29.330078 32.032453 30.370047 34.564453 32.123047 C 34.901453 31.914047 35.251094 31.728219 35.621094 31.574219 C 32.848094 29.531219 29.213344 28.330078 25.277344 28.330078 z M 38.5 32 C 34.91 32 32 34.91 32 38.5 C 32 42.09 34.91 45 38.5 45 C 42.09 45 45 42.09 45 38.5 C 45 34.91 42.09 32 38.5 32 z M 38.5 34.5 C 38.776 34.5 39 34.724 39 35 L 39 38 L 42 38 C 42.276 38 42.5 38.224 42.5 38.5 C 42.5 38.776 42.276 39 42 39 L 39 39 L 39 42 C 39 42.276 38.776 42.5 38.5 42.5 C 38.224 42.5 38 42.276 38 42 L 38 39 L 35 39 C 34.724 39 34.5 38.776 34.5 38.5 C 34.5 38.224 34.724 38 35 38 L 38 38 L 38 35 C 38 34.724 38.224 34.5 38.5 34.5 z"/></svg>