<?xml version="1.0" encoding="iso-8859-1"?>
<!-- Generator: Adobe Illustrator 27.4.0, SVG Export Plug-In . SVG Version: 6.00 Build 0)  -->
<svg version="1.1" baseProfile="basic" xmlns="http://www.w3.org/2000/svg" xmlns:xlink="http://www.w3.org/1999/xlink" x="0px"
	 y="0px" viewBox="0 0 120 120" xml:space="preserve">
<g id="&#x421;&#x43B;&#x43E;&#x439;_1">
	<g style="opacity:0.35;">
		<path d="M29,76H14V63.18c0-14.146,6.31-27.361,17.31-36.256l8.976-7.256l9.43,11.664l-8.974,7.256
			C33.279,44.621,29,53.584,29,63.18V76z"/>
	</g>
	<g style="opacity:0.35;">
		<path d="M81,76H66V63.18c0-14.146,6.31-27.361,17.31-36.256l8.976-7.256l9.43,11.664l-8.974,7.256
			C85.279,44.621,81,53.584,81,63.18V76z"/>
	</g>
	<g>
		<path style="fill:#0037FF;" d="M29,70H14V57.18c0-14.146,6.31-27.361,17.31-36.256l8.976-7.256l9.43,11.664l-8.974,7.256
			C33.279,38.621,29,47.584,29,57.18V70z"/>
	</g>
	<g>
		<path style="fill:#0037FF;" d="M81,70H66V57.18c0-14.146,6.31-27.361,17.31-36.256l8.976-7.256l9.43,11.664l-8.974,7.256
			C85.279,38.621,81,47.584,81,57.18V70z"/>
	</g>
	<rect x="14" y="66" style="opacity:0.35;" width="41" height="41"/>
	<rect x="14" y="62" style="fill:#0075FF;" width="41" height="41"/>
	<rect x="66" y="66" style="opacity:0.35;" width="41" height="41"/>
	<rect x="66" y="62" style="fill:#0075FF;" width="41" height="41"/>
</g>
<g id="&#x421;&#x43B;&#x43E;&#x439;_2">
</g>
</svg>