<svg xmlns="http://www.w3.org/2000/svg"  viewBox="0 0 50 50" width="50px" height="50px"><path d="M 25 1.023438 L 13.640625 11.53125 C 13.105469 12.011719 12.867188 12.746094 13.023438 13.453125 C 13.179688 14.15625 13.703125 14.722656 14.394531 14.933594 C 15.085938 15.144531 15.835938 14.96875 16.359375 14.46875 L 23 8.324219 L 23 47 C 22.988281 47.722656 23.367188 48.390625 23.992188 48.753906 C 24.613281 49.121094 25.386719 49.121094 26.007813 48.753906 C 26.632813 48.390625 27.011719 47.722656 27 47 L 27 8.324219 L 33.640625 14.46875 C 34.164063 14.96875 34.914063 15.144531 35.605469 14.933594 C 36.296875 14.722656 36.820313 14.15625 36.976563 13.453125 C 37.132813 12.746094 36.894531 12.011719 36.359375 11.53125 Z"/></svg>